<svg width="30" height="30" viewBox="0 0 30 30" fill="none" xmlns="http://www.w3.org/2000/svg">
<rect width="30" height="30" rx="8" fill="#FFBB45"/>
<path fill-rule="evenodd" clip-rule="evenodd" d="M11.7692 6.76923H18.2308C20.9922 6.76923 23.2308 9.0078 23.2308 11.7692V18.2308C23.2308 20.9922 20.9922 23.2308 18.2308 23.2308H11.7692C9.0078 23.2308 6.76923 20.9922 6.76923 18.2308V11.7692C6.76923 9.0078 9.0078 6.76923 11.7692 6.76923ZM5.76923 11.7692C5.76923 8.45552 8.45552 5.76923 11.7692 5.76923H18.2308C21.5445 5.76923 24.2308 8.45552 24.2308 11.7692V18.2308C24.2308 21.5445 21.5445 24.2308 18.2308 24.2308H11.7692C8.45552 24.2308 5.76923 21.5445 5.76923 18.2308V11.7692ZM13.6043 13.6043L17.7398 12.2259L16.3961 15.988L12.258 17.6432L13.6043 13.6043ZM12.6556 13.2881C12.7552 12.9895 12.9895 12.7552 13.2881 12.6557L17.4235 11.2772C18.2146 11.0135 18.962 11.7769 18.6815 12.5622L17.3379 16.3243C17.2414 16.5943 17.0337 16.81 16.7675 16.9165L12.6294 18.5717C11.8389 18.8879 11.0401 18.1347 11.3093 17.327L12.6556 13.2881Z" fill="#F0FFFB"/>
</svg>
