<svg width="30" height="30" viewBox="0 0 30 30" fill="none" xmlns="http://www.w3.org/2000/svg">
<rect width="30" height="30" rx="5" fill="#00E5A4"/>
<path d="M13.7418 6.85836L9.58346 8.42503C8.62513 8.78336 7.8418 9.9167 7.8418 10.9334V17.125C7.8418 18.1084 8.4918 19.4 9.28346 19.9917L12.8668 22.6667C14.0418 23.55 15.9751 23.55 17.1501 22.6667L20.7335 19.9917C21.5251 19.4 22.1751 18.1084 22.1751 17.125V10.9334C22.1751 9.90836 21.3918 8.77503 20.4335 8.4167L16.2751 6.85836C15.5668 6.60003 14.4335 6.60003 13.7418 6.85836Z" stroke="#00140F" stroke-width="1.5" stroke-linecap="round" stroke-linejoin="round"/>
<path d="M15.0002 15.4166C15.9206 15.4166 16.6668 14.6705 16.6668 13.75C16.6668 12.8295 15.9206 12.0833 15.0002 12.0833C14.0797 12.0833 13.3335 12.8295 13.3335 13.75C13.3335 14.6705 14.0797 15.4166 15.0002 15.4166Z" stroke="#00140F" stroke-width="1.5" stroke-miterlimit="10" stroke-linecap="round" stroke-linejoin="round"/>
<path d="M15 15.4167V17.9167" stroke="#00140F" stroke-width="1.5" stroke-miterlimit="10" stroke-linecap="round" stroke-linejoin="round"/>
</svg>
