<svg width="21" height="20" viewBox="0 0 21 20" fill="none" xmlns="http://www.w3.org/2000/svg">
<path d="M17.5333 2.88333C17.4344 2.65303 17.209 2.50274 16.9583 2.5H12.7917C12.4465 2.5 12.1667 2.77982 12.1667 3.125C12.1667 3.47018 12.4465 3.75 12.7917 3.75H15.45L10.6833 8.51667C10.4396 8.76068 10.4396 9.15599 10.6833 9.4C10.9274 9.64371 11.3227 9.64371 11.5667 9.4L16.3333 4.63333V7.29167C16.3333 7.63685 16.6132 7.91667 16.9583 7.91667C17.3035 7.91667 17.5833 7.63685 17.5833 7.29167V3.125C17.5829 3.04192 17.5659 2.95977 17.5333 2.88333Z" fill="#00140F"/>
<path d="M15.2917 9.16667C14.9484 9.17116 14.6712 9.44837 14.6667 9.79167V13.125C14.6621 14.6189 13.4522 15.8288 11.9583 15.8333H6.95833C5.46446 15.8288 4.25458 14.6189 4.25 13.125V8.125C4.25458 6.63113 5.46446 5.42124 6.95833 5.41667H10.2917C10.6368 5.41667 10.9167 5.13684 10.9167 4.79167C10.9167 4.44649 10.6368 4.16667 10.2917 4.16667H6.95833C4.77221 4.16667 3 5.93887 3 8.125V13.125C3 15.3111 4.77221 17.0833 6.95833 17.0833H11.9583C14.1445 17.0833 15.9167 15.3111 15.9167 13.125V9.79167C15.9122 9.44837 15.635 9.17116 15.2917 9.16667Z" fill="#00140F"/>
</svg>
