<svg width="30" height="30" viewBox="0 0 30 30" fill="none" xmlns="http://www.w3.org/2000/svg">
<rect width="30" height="30" rx="5" fill="#00E5A4"/>
<path d="M10 13.3333V11.6667C10 8.90832 10.8333 6.66666 15 6.66666C19.1667 6.66666 20 8.90832 20 11.6667V13.3333" stroke="#00140F" stroke-width="1.5" stroke-linecap="round" stroke-linejoin="round"/>
<path d="M14.9998 20.4167C16.1504 20.4167 17.0832 19.4839 17.0832 18.3333C17.0832 17.1827 16.1504 16.25 14.9998 16.25C13.8492 16.25 12.9165 17.1827 12.9165 18.3333C12.9165 19.4839 13.8492 20.4167 14.9998 20.4167Z" stroke="#00140F" stroke-width="1.5" stroke-linecap="round" stroke-linejoin="round"/>
<path d="M19.1665 23.3333H10.8332C7.49984 23.3333 6.6665 22.5 6.6665 19.1667V17.5C6.6665 14.1667 7.49984 13.3333 10.8332 13.3333H19.1665C22.4998 13.3333 23.3332 14.1667 23.3332 17.5V19.1667C23.3332 22.5 22.4998 23.3333 19.1665 23.3333Z" stroke="#00140F" stroke-width="1.5" stroke-linecap="round" stroke-linejoin="round"/>
</svg>
