<svg width="30" height="30" viewBox="0 0 30 30" fill="none" xmlns="http://www.w3.org/2000/svg">
<rect width="30" height="30" rx="8" fill="#00AF7E"/>
<path d="M12.6923 22.6923H17.3077C21.1538 22.6923 22.6923 21.1538 22.6923 17.3077V12.6923C22.6923 8.84615 21.1538 7.30769 17.3077 7.30769H12.6923C8.84614 7.30769 7.30768 8.84615 7.30768 12.6923V17.3077C7.30768 21.1538 8.84614 22.6923 12.6923 22.6923Z" stroke="#F0FFFB" stroke-linecap="round" stroke-linejoin="round"/>
<path d="M17.6923 20C18.5385 20 19.2308 19.3077 19.2308 18.4615V11.5385C19.2308 10.6923 18.5385 10 17.6923 10C16.8461 10 16.1538 10.6923 16.1538 11.5385V18.4615C16.1538 19.3077 16.8385 20 17.6923 20Z" stroke="#F0FFFB" stroke-linecap="round" stroke-linejoin="round"/>
<path d="M12.3077 20C13.1538 20 13.8461 19.3077 13.8461 18.4615V15.7692C13.8461 14.9231 13.1538 14.2308 12.3077 14.2308C11.4615 14.2308 10.7692 14.9231 10.7692 15.7692V18.4615C10.7692 19.3077 11.4538 20 12.3077 20Z" stroke="#F0FFFB" stroke-linecap="round" stroke-linejoin="round"/>
</svg>
