<svg width="29" height="29" viewBox="0 0 29 29" fill="none" xmlns="http://www.w3.org/2000/svg">
<rect width="28.46" height="28.46" rx="8" fill="#00E5A4"/>
<path d="M14.23 16.5375C15.5044 16.5375 16.5375 15.5044 16.5375 14.23C16.5375 12.9556 15.5044 11.9225 14.23 11.9225C12.9556 11.9225 11.9225 12.9556 11.9225 14.23C11.9225 15.5044 12.9556 16.5375 14.23 16.5375Z" stroke="#00140F" stroke-miterlimit="10" stroke-linecap="round" stroke-linejoin="round"/>
<path d="M6.53833 14.9069V13.5531C6.53833 12.7532 7.19212 12.0917 7.99975 12.0917C9.39194 12.0917 9.96112 11.1072 9.26118 9.89959C8.86121 9.20734 9.09965 8.30741 9.7996 7.90745L11.1303 7.14597C11.7379 6.78446 12.5224 6.99983 12.884 7.60747L12.9686 7.75361C13.6608 8.96121 14.7992 8.96121 15.4991 7.75361L15.5837 7.60747C15.9452 6.99983 16.7298 6.78446 17.3374 7.14597L18.6681 7.90745C19.368 8.30741 19.6065 9.20734 19.2065 9.89959C18.5066 11.1072 19.0757 12.0917 20.4679 12.0917C21.2679 12.0917 21.9294 12.7455 21.9294 13.5531V14.9069C21.9294 15.7068 21.2756 16.3683 20.4679 16.3683C19.0757 16.3683 18.5066 17.3528 19.2065 18.5604C19.6065 19.2603 19.368 20.1526 18.6681 20.5525L17.3374 21.314C16.7298 21.6755 15.9452 21.4602 15.5837 20.8525L15.4991 20.7064C14.8069 19.4988 13.6685 19.4988 12.9686 20.7064L12.884 20.8525C12.5224 21.4602 11.7379 21.6755 11.1303 21.314L9.7996 20.5525C9.09965 20.1526 8.86121 19.2527 9.26118 18.5604C9.96112 17.3528 9.39194 16.3683 7.99975 16.3683C7.19212 16.3683 6.53833 15.7068 6.53833 14.9069Z" stroke="#00140F" stroke-miterlimit="10" stroke-linecap="round" stroke-linejoin="round"/>
</svg>
