<svg width="21" height="21" viewBox="0 0 21 21" fill="none" xmlns="http://www.w3.org/2000/svg">
<path d="M11.3333 9.79169H6.33325" stroke="#F0FFFB" stroke-width="1.5" stroke-linecap="round" stroke-linejoin="round"/>
<path d="M2.16675 9.7917V5.9417C2.16675 4.2417 3.54175 2.8667 5.24175 2.8667H9.92508C11.6251 2.8667 13.0001 3.92503 13.0001 5.62503" stroke="#F0FFFB" stroke-width="1.5" stroke-linecap="round" stroke-linejoin="round"/>
<path d="M15.0667 10.6667C14.6501 11.0667 14.4501 11.6833 14.6167 12.3166C14.8251 13.0916 15.5918 13.5833 16.3918 13.5833H17.1667V14.7917C17.1667 16.6333 15.6751 18.125 13.8334 18.125H5.50008C3.65841 18.125 2.16675 16.6333 2.16675 14.7917V8.95833C2.16675 7.11667 3.65841 5.625 5.50008 5.625H13.8334C15.6667 5.625 17.1667 7.125 17.1667 8.95833V10.1666H16.2667C15.8001 10.1666 15.3751 10.35 15.0667 10.6667Z" stroke="#F0FFFB" stroke-width="1.5" stroke-linecap="round" stroke-linejoin="round"/>
<path d="M18.8333 11.0166V12.7333C18.8333 13.2 18.45 13.5833 17.975 13.5833H16.3667C15.4667 13.5833 14.6417 12.925 14.5667 12.025C14.5167 11.5 14.7167 11.0083 15.0667 10.6667C15.375 10.35 15.8 10.1666 16.2667 10.1666H17.975C18.45 10.1666 18.8333 10.55 18.8333 11.0166Z" stroke="#F0FFFB" stroke-width="1.5" stroke-linecap="round" stroke-linejoin="round"/>
</svg>
