<svg width="29" height="29" viewBox="0 0 29 29" fill="none" xmlns="http://www.w3.org/2000/svg">
<rect width="28.46" height="28.46" rx="8" fill="#00E5A4"/>
<path d="M14.2454 7.23828C11.6994 7.23828 9.63039 9.30734 9.63039 11.8533V14.0762C9.63039 14.5454 9.43041 15.2607 9.19197 15.6607L8.30742 17.1298C7.76132 18.0374 8.13821 19.045 9.13812 19.3834C12.4532 20.491 16.0299 20.491 19.345 19.3834C20.2757 19.0758 20.6833 17.9758 20.1757 17.1298L19.2911 15.6607C19.0604 15.2607 18.8604 14.5454 18.8604 14.0762V11.8533C18.8604 9.31503 16.7836 7.23828 14.2454 7.23828Z" stroke="#00140F" stroke-miterlimit="10" stroke-linecap="round"/>
<path d="M15.6684 7.46134C15.4299 7.39211 15.1838 7.33827 14.93 7.3075C14.1916 7.2152 13.4839 7.26905 12.8224 7.46134C13.0455 6.89215 13.5993 6.49219 14.2454 6.49219C14.8915 6.49219 15.4453 6.89215 15.6684 7.46134Z" stroke="#00140F" stroke-miterlimit="10" stroke-linecap="round" stroke-linejoin="round"/>
<path d="M16.5529 19.6603C16.5529 20.9294 15.5145 21.9678 14.2454 21.9678C13.6146 21.9678 13.0301 21.7063 12.6147 21.2909C12.1994 20.8756 11.9379 20.291 11.9379 19.6603" stroke="#00140F" stroke-miterlimit="10"/>
</svg>
